<svg xmlns="http://www.w3.org/2000/svg" version="1.1" xmlns:xlink="http://www.w3.org/1999/xlink" xmlns:svgjs="http://svgjs.dev/svgjs" width="1500" height="1500" viewBox="0 0 1500 1500"><rect width="1500" height="1500" fill="#ffffff"></rect><g transform="matrix(0.6666666666666666,0,0,0.6666666666666666,249.39393939393938,660.3298661854988)"><svg viewBox="0 0 396 71" data-background-color="#ffffff" preserveAspectRatio="xMidYMid meet" height="268" width="1500" xmlns="http://www.w3.org/2000/svg" xmlns:xlink="http://www.w3.org/1999/xlink"><g id="tight-bounds" transform="matrix(1,0,0,1,0.2400000000000091,0.13384048971784068)"><svg viewBox="0 0 395.52 70.73231902056433" height="70.73231902056433" width="395.52"><g><svg viewBox="0 0 500.26717799768625 89.46464813321649" height="70.73231902056433" width="395.52"><g transform="matrix(1,0,0,1,0,12.36450636283962)"><svg viewBox="0 0 395.52 64.73563540753725" height="64.73563540753725" width="395.52"><g id="textblocktransform"><svg viewBox="0 0 395.52 64.73563540753725" height="64.73563540753725" width="395.52" id="textblock"><g><svg viewBox="0 0 395.52 64.73563540753725" height="64.73563540753725" width="395.52"><g transform="matrix(1,0,0,1,0,0)"><svg width="395.52" viewBox="0.39 -35.72 222.83 36.48" height="64.73563540753725" data-palette-color="#003049"><path d="M8.54-30.83L8.54-30.83 18.9-4.32 24.85-16.5 21.02-27.1Q20.58-28.34 20.23-29.22 19.87-30.1 19.63-30.71L19.63-30.71Q19.19-31.62 18.19-32.35L18.19-32.35Q17.6-32.71 17.05-32.95 16.5-33.18 16.16-33.42L16.16-33.42Q15.97-33.54 15.84-33.76L15.84-33.76Q15.82-33.89 15.82-33.96L15.82-33.96Q15.82-34.06 15.84-34.13L15.84-34.13Q15.92-34.28 16.14-34.28L16.14-34.28 24.41-34.28Q24.63-34.28 24.83-34.13L24.83-34.13Q25.07-33.96 25.15-33.76L25.15-33.76Q25.17-33.69 25.17-33.64L25.17-33.64Q25.17-33.4 24.9-33.15L24.9-33.15Q24.66-32.93 24.35-32.68 24.05-32.42 23.9-32.06L23.9-32.06Q23.8-31.81 23.8-31.54L23.8-31.54Q23.8-31.2 23.97-30.83L23.97-30.83 27.47-21.9 29.98-27.03Q30.27-27.66 30.27-28.17L30.27-28.17Q30.27-28.61 30.08-28.96L30.08-28.96Q29.59-29.69 28.64-30.86L28.64-30.86 27.42-32.25 30.47-34.55Q30.66-34.72 30.88-34.72L30.88-34.72Q31.13-34.72 31.42-34.47L31.42-34.47 33.42-32.42Q34.06-31.76 34.06-30.81L34.06-30.81Q34.06-30.27 33.86-29.66L33.86-29.66Q33.28-27.93 32.13-25.59L32.13-25.59 28.76-18.6 34.33-4.32 45.41-27.03Q45.7-27.66 45.7-28.17L45.7-28.17Q45.7-28.61 45.51-28.96L45.51-28.96Q45.02-29.69 44.04-30.86L44.04-30.86 42.85-32.25 45.87-34.55Q46.07-34.72 46.29-34.72L46.29-34.72Q46.56-34.72 46.85-34.47L46.85-34.47 48.85-32.42Q49.49-31.76 49.49-30.81L49.49-30.81Q49.49-30.27 49.29-29.66L49.29-29.66Q48.71-27.93 47.56-25.59L47.56-25.59 35.6-0.78Q35.42-0.34 35.23-0.15L35.23-0.15Q35.08 0 34.84 0L34.84 0 31.18 0Q30.91 0 30.79-0.2L30.79-0.2Q30.69-0.27 30.52-0.76 30.35-1.25 30.27-1.46L30.27-1.46 26.1-13.06 20.17-0.78Q20-0.34 19.8-0.15L19.8-0.15Q19.65 0 19.41 0L19.41 0 15.75 0Q15.48 0 15.36-0.2L15.36-0.2Q15.26-0.27 15.09-0.76 14.92-1.25 14.84-1.46L14.84-1.46 4.2-30.71Q3.86-31.57 2.76-32.35L2.76-32.35Q2.17-32.71 1.62-32.95 1.07-33.18 0.73-33.42L0.73-33.42Q0.54-33.54 0.42-33.76L0.42-33.76Q0.39-33.89 0.39-33.96L0.39-33.96Q0.39-34.06 0.42-34.13L0.42-34.13Q0.49-34.28 0.71-34.28L0.71-34.28 8.98-34.28Q9.2-34.28 9.42-34.13L9.42-34.13Q9.64-33.94 9.72-33.76L9.72-33.76Q9.74-33.69 9.74-33.64L9.74-33.64Q9.74-33.4 9.47-33.15L9.47-33.15Q9.23-32.93 8.92-32.68 8.62-32.42 8.47-32.06L8.47-32.06Q8.37-31.81 8.37-31.54L8.37-31.54Q8.37-31.2 8.54-30.83ZM59.84-14.53L59.84-14.53 59.84-3.56Q59.84-1.98 61.04-1.55 62.25-1.12 62.25-0.51L62.25-0.51Q62.25 0 61.77 0L61.77 0 53.49 0Q52.98 0 52.98-0.51L52.98-0.51Q52.98-1.12 54.2-1.55 55.42-1.98 55.42-3.56L55.42-3.56 55.42-19.19Q55.42-20.73 54.2-21.17 52.98-21.61 52.98-22.24L52.98-22.24Q52.98-22.75 53.49-22.75L53.49-22.75Q55.1-22.83 56.67-23.25 58.25-23.68 59.84-24.22L59.84-24.22 59.84-21 63.23-22.29Q65.11-23 66.16-23.34L66.16-23.34Q66.48-23.44 66.92-23.44L66.92-23.44Q67.82-23.44 69.21-22.95L69.21-22.95 68.67-16.82 67.55-16.82Q66.6-20.39 63.89-20.39L63.89-20.39Q63.62-20.39 63.35-20.36L63.35-20.36Q61.5-20.14 60.7-18.47 59.91-16.8 59.84-14.53ZM77.66-34.18L77.66-34.18Q80.32-34.18 80.32-31.49L80.32-31.49Q80.32-28.78 77.66-28.78L77.66-28.78Q75-28.78 75-31.49L75-31.49Q75-34.18 77.66-34.18ZM79.85-24.22L79.85-3.56Q79.85-1.98 81.07-1.55 82.29-1.12 82.29-0.51L82.29-0.51Q82.29 0 81.81 0L81.81 0 73.53 0Q73.02 0 73.02-0.51L73.02-0.51Q73.02-1.12 74.24-1.55 75.46-1.98 75.46-3.56L75.46-3.56 75.46-19.19Q75.46-20.73 74.24-21.17 73.02-21.61 73.02-22.24L73.02-22.24Q73.02-22.75 73.53-22.75L73.53-22.75Q75.14-22.83 76.72-23.25 78.29-23.68 79.85-24.22L79.85-24.22ZM89.81-6.1L89.81-20.63Q88.88-20.61 87.03-20.51L87.03-20.51 86.91-20.51Q86.44-20.51 86.42-21L86.42-21 86.42-21.04Q86.42-21.44 86.88-21.66L86.88-21.66Q87.37-21.88 88.91-22.71L88.91-22.71Q89.27-22.9 89.62-23.05L89.62-23.05Q89.69-23.07 89.81-23.07L89.81-23.07 89.81-27.25Q89.81-28.47 90.31-28.94 90.81-29.42 92.62-30.27L92.62-30.27Q93.28-30.59 93.67-30.59L93.67-30.59Q94.23-30.59 94.23-29.96L94.23-29.96 94.23-23.14 100.04-23.27 100.07-23.27Q100.43-23.27 100.43-22.63L100.43-22.63Q100.43-22.29 100.33-21.8L100.33-21.8Q100.09-20.65 99.24-20.65L99.24-20.65 94.23-20.68 94.23-5.37Q94.23-3.15 95.78-2.05 97.33-0.95 98.43-0.81L98.43-0.81 98.43-0.02Q94.79-0.02 92.3-0.71 89.81-1.39 89.81-6.1L89.81-6.1ZM103.14-13.45L103.14-13.45Q103.82-17.97 106.74-20.68 109.66-23.39 114.42-23.44L114.42-23.44 114.52-23.44Q119.33-23.44 121.87-20.7L121.87-20.7Q124.4-17.92 124.4-13.45L124.4-13.45Q124.38-12.48 124.33-12.07 124.28-11.67 123.33-11.67L123.33-11.67 107.78-11.67Q107.85-7.71 109.78-5.11 111.71-2.51 114.64-1.93L114.64-1.93Q115.49-1.73 116.37-1.73L116.37-1.73Q118.69-1.73 121.18-3.08L121.18-3.08Q122.57-3.83 123.06-3.83L123.06-3.83Q123.18-3.83 123.26-3.78L123.26-3.78Q123.33-3.71 123.33-3.56L123.33-3.56Q123.33-3.25 123.01-2.66L123.01-2.66Q122.72-2.08 122.54-1.88 122.35-1.68 122.21-1.54L122.21-1.54Q119.55 0.76 114.98 0.76L114.98 0.76Q108.58 0.71 105.39-3.34L105.39-3.34Q102.92-6.47 102.92-10.77L102.92-10.77Q102.92-12.06 103.14-13.45ZM107.78-13.45L107.78-13.45 120.64-13.45Q120.64-16.43 119.3-18.92L119.3-18.92Q118.01-21.29 114.57-21.29L114.57-21.29 114.3-21.29Q110.85-21.19 109.37-18.8 107.88-16.41 107.78-13.45ZM134.46-30.83L134.46-30.83 144.81-4.32 150.77-16.5 146.94-27.1Q146.5-28.34 146.14-29.22 145.79-30.1 145.54-30.71L145.54-30.71Q145.1-31.62 144.1-32.35L144.1-32.35Q143.52-32.71 142.97-32.95 142.42-33.18 142.08-33.42L142.08-33.42Q141.88-33.54 141.76-33.76L141.76-33.76Q141.74-33.89 141.74-33.96L141.74-33.96Q141.74-34.06 141.76-34.13L141.76-34.13Q141.83-34.28 142.05-34.28L142.05-34.28 150.33-34.28Q150.55-34.28 150.74-34.13L150.74-34.13Q150.99-33.96 151.06-33.76L151.06-33.76Q151.09-33.69 151.09-33.64L151.09-33.64Q151.09-33.4 150.82-33.15L150.82-33.15Q150.57-32.93 150.27-32.68 149.96-32.42 149.82-32.06L149.82-32.06Q149.72-31.81 149.72-31.54L149.72-31.54Q149.72-31.2 149.89-30.83L149.89-30.83 153.38-21.9 155.9-27.03Q156.19-27.66 156.19-28.17L156.19-28.17Q156.19-28.61 155.99-28.96L155.99-28.96Q155.51-29.69 154.55-30.86L154.55-30.86 153.33-32.25 156.38-34.55Q156.58-34.72 156.8-34.72L156.8-34.72Q157.04-34.72 157.34-34.47L157.34-34.47 159.34-32.42Q159.97-31.76 159.97-30.81L159.97-30.81Q159.97-30.27 159.78-29.66L159.78-29.66Q159.19-27.93 158.04-25.59L158.04-25.59 154.68-18.6 160.24-4.32 171.33-27.03Q171.62-27.66 171.62-28.17L171.62-28.17Q171.62-28.61 171.42-28.96L171.42-28.96Q170.93-29.69 169.96-30.86L169.96-30.86 168.76-32.25 171.79-34.55Q171.98-34.72 172.2-34.72L172.2-34.72Q172.47-34.72 172.77-34.47L172.77-34.47 174.77-32.42Q175.4-31.76 175.4-30.81L175.4-30.81Q175.4-30.27 175.21-29.66L175.21-29.66Q174.62-27.93 173.47-25.59L173.47-25.59 161.51-0.78Q161.34-0.34 161.14-0.15L161.14-0.15Q161 0 160.75 0L160.75 0 157.09 0Q156.82 0 156.7-0.2L156.7-0.2Q156.6-0.27 156.43-0.76 156.26-1.25 156.19-1.46L156.19-1.46 152.01-13.06 146.08-0.78Q145.91-0.34 145.72-0.15L145.72-0.15Q145.57 0 145.32 0L145.32 0 141.66 0Q141.39 0 141.27-0.2L141.27-0.2Q141.17-0.27 141-0.76 140.83-1.25 140.76-1.46L140.76-1.46 130.11-30.71Q129.77-31.57 128.67-32.35L128.67-32.35Q128.09-32.71 127.54-32.95 126.99-33.18 126.65-33.42L126.65-33.42Q126.45-33.54 126.33-33.76L126.33-33.76Q126.31-33.89 126.31-33.96L126.31-33.96Q126.31-34.06 126.33-34.13L126.33-34.13Q126.4-34.28 126.62-34.28L126.62-34.28 134.9-34.28Q135.12-34.28 135.34-34.13L135.34-34.13Q135.56-33.94 135.63-33.76L135.63-33.76Q135.66-33.69 135.66-33.64L135.66-33.64Q135.66-33.4 135.39-33.15L135.39-33.15Q135.14-32.93 134.84-32.68 134.53-32.42 134.39-32.06L134.39-32.06Q134.29-31.81 134.29-31.54L134.29-31.54Q134.29-31.2 134.46-30.83ZM174.11-13.45L174.11-13.45Q174.79-17.97 177.71-20.68 180.62-23.39 185.39-23.44L185.39-23.44 185.48-23.44Q190.29-23.44 192.83-20.7L192.83-20.7Q195.37-17.92 195.37-13.45L195.37-13.45Q195.35-12.48 195.3-12.07 195.25-11.67 194.3-11.67L194.3-11.67 178.74-11.67Q178.82-7.71 180.75-5.11 182.68-2.51 185.61-1.93L185.61-1.93Q186.46-1.73 187.34-1.73L187.34-1.73Q189.66-1.73 192.15-3.08L192.15-3.08Q193.54-3.83 194.03-3.83L194.03-3.83Q194.15-3.83 194.22-3.78L194.22-3.78Q194.3-3.71 194.3-3.56L194.3-3.56Q194.3-3.25 193.98-2.66L193.98-2.66Q193.69-2.08 193.5-1.88 193.32-1.68 193.17-1.54L193.17-1.54Q190.51 0.76 185.95 0.76L185.95 0.76Q179.55 0.71 176.35-3.34L176.35-3.34Q173.89-6.47 173.89-10.77L173.89-10.77Q173.89-12.06 174.11-13.45ZM178.74-13.45L178.74-13.45 191.61-13.45Q191.61-16.43 190.27-18.92L190.27-18.92Q188.97-21.29 185.53-21.29L185.53-21.29 185.26-21.29Q181.82-21.19 180.33-18.8 178.84-16.41 178.74-13.45ZM206.21-35.72L206.21-3.56Q206.21-1.98 207.43-1.55 208.65-1.12 208.65-0.51L208.65-0.51Q208.65 0 208.16 0L208.16 0 199.88 0Q199.37 0 199.37-0.51L199.37-0.51Q199.37-1.12 200.59-1.55 201.81-1.98 201.81-3.56L201.81-3.56 201.81-30.69Q201.81-32.25 200.59-32.69 199.37-33.13 199.37-33.76L199.37-33.76Q199.37-34.28 199.88-34.28L199.88-34.28Q201.5-34.35 203.07-34.77 204.65-35.18 206.21-35.72L206.21-35.72ZM220.78-35.72L220.78-3.56Q220.78-1.98 222-1.55 223.22-1.12 223.22-0.51L223.22-0.51Q223.22 0 222.73 0L222.73 0 214.46 0Q213.94 0 213.94-0.51L213.94-0.51Q213.94-1.12 215.17-1.55 216.39-1.98 216.39-3.56L216.39-3.56 216.39-30.69Q216.39-32.25 215.17-32.69 213.94-33.13 213.94-33.76L213.94-33.76Q213.94-34.28 214.46-34.28L214.46-34.28Q216.07-34.35 217.64-34.77 219.22-35.18 220.78-35.72L220.78-35.72Z" opacity="1" transform="matrix(1,0,0,1,0,0)" fill="#003049" class="wordmark-text-0" data-fill-palette-color="primary" id="text-0"></path></svg></g></svg></g></svg></g></svg></g><g transform="matrix(1,0,0,1,410.80252986446976,0)"><svg viewBox="0 0 89.46464813321649 89.46464813321649" height="89.46464813321649" width="89.46464813321649"><g data-palette-color="#c1121f"><rect width="24.453670489745843" height="89.46464813321649" fill="#c1121f" stroke="transparent" data-fill-palette-color="accent" x="0" fill-opacity="1"></rect><rect width="24.453670489745843" height="89.46464813321649" fill="#c1121f" stroke="transparent" data-fill-palette-color="accent" x="29.821549377738833" fill-opacity="0.75"></rect><rect width="24.453670489745843" height="89.46464813321649" fill="#c1121f" stroke="transparent" data-fill-palette-color="accent" x="59.643098755477666" fill-opacity="0.5"></rect></g></svg></g></svg></g><defs></defs></svg><rect width="395.52" height="70.73231902056433" fill="none" stroke="none" visibility="hidden"></rect></g></svg></g></svg>